PathFileType	4	(X/Y/Z)	C:\Users\Basilio\Documents\Thesis Gigler\squatting_fais\c3dfiles\040\SLS_pre_front3\markers_experimental.trc
DataRate	CameraRate	NumFrames	NumMarkers	Units	OrigDataRate	OrigDataStartFrame	OrigNumFrames
200.000000	200.000000	4	62	mm	200.000000	418	1116
Frame#	Time	FHD			LBHD			RBHD			C7			T10			CLAV			LSHO			LUUPA			LMUPA			LDUPA			LLEP			LMEP			LRAD			LUL			LRFIN			RSHO			RUPA1			RMUPA			RDUPA			RLEP			RMEP			RRAD			RUL			RUFIN			LASI			RASI			USACR			LSACR			RSACR			LTHI1			LTHI2			LTHI3			LTHI4			LLFC			LMFC			LTIB1			LTIB2			LTIB3			LTIB4			LLMAL			LMMAL			LHEE			LMT1			LMT2			LMT5			RTHI			RTHI2			RTHI3			RTHI4			RLFC			RMFC			RTIB1			RTIB2			RTIB3			RTIB4			RLMAL			RMMAL			RHEE			RMT1			RMT2			RMT5			*61			
		X1	Y1	Z1	X2	Y2	Z2	X3	Y3	Z3	X4	Y4	Z4	X5	Y5	Z5	X6	Y6	Z6	X7	Y7	Z7	X8	Y8	Z8	X9	Y9	Z9	X10	Y10	Z10	X11	Y11	Z11	X12	Y12	Z12	X13	Y13	Z13	X14	Y14	Z14	X15	Y15	Z15	X16	Y16	Z16	X17	Y17	Z17	X18	Y18	Z18	X19	Y19	Z19	X20	Y20	Z20	X21	Y21	Z21	X22	Y22	Z22	X23	Y23	Z23	X24	Y24	Z24	X25	Y25	Z25	X26	Y26	Z26	X27	Y27	Z27	X28	Y28	Z28	X29	Y29	Z29	X30	Y30	Z30	X31	Y31	Z31	X32	Y32	Z32	X33	Y33	Z33	X34	Y34	Z34	X35	Y35	Z35	X36	Y36	Z36	X37	Y37	Z37	X38	Y38	Z38	X39	Y39	Z39	X40	Y40	Z40	X41	Y41	Z41	X42	Y42	Z42	X43	Y43	Z43	X44	Y44	Z44	X45	Y45	Z45	X46	Y46	Z46	X47	Y47	Z47	X48	Y48	Z48	X49	Y49	Z49	X50	Y50	Z50	X51	Y51	Z51	X52	Y52	Z52	X53	Y53	Z53	X54	Y54	Z54	X55	Y55	Z55	X56	Y56	Z56	X57	Y57	Z57	X58	Y58	Z58	X59	Y59	Z59	X60	Y60	Z60	X61	Y61	Z61	X62	Y62	Z62	

419	2.09	-167.5453186035157	1494.674194335938	-1156.718994140625	-291.1735229492188	1440.855834960938	-1197.0888671875	-341.9695739746094	1400.980712890625	-1064.899536132813	-347.4480895996094	1299.676391601563	-1111.421142578125	-482.2046203613282	1024.475708007813	-1076.775024414063	-237.0654907226563	1208.8134765625	-1121.421020507813	-282.3748474121094	1289.55517578125	-1251.196411132813	-133.9595336914063	1241.013793945313	-1335.518432617188	-101.7922058105469	1253.575561523438	-1299.160400390625	-65.58238983154298	1228.060546875	-1341.56396484375	-7.700149059295656	1198.906005859375	-1343.776000976563	-20.32830810546875	1143.43505859375	-1311.685913085938	nan	nan	nan	266.7506103515626	1220.200317382813	-1269.449096679688	324.4081420898438	1241.435424804688	-1174.978881835938	-246.5756835937501	1277.1552734375	-986.8148193359377	-90.76087188720705	1215.651245117188	-918.995544433594	-64.7174530029297	1236.757568359375	-953.7498168945315	-23.22677612304688	1199.61572265625	-929.1841430664065	36.95617675781251	1189.72802734375	-946.688659667969	21.63774681091309	1131.353515625	-992.239440917969	278.7448120117188	1241.078735351563	-1112.96875	297.1694030761719	1218.851684570313	-1041.033203125	377.5565490722657	1251.532958984375	-1111.3388671875	-359.0392761230469	820.0706787109377	-1162.285888671875	-354.0617980957032	843.275329589844	-943.2333984375002	-536.4081420898439	870.8588867187502	-1048.122680664063	-547.9655151367189	837.8767700195315	-1073.140625	-545.9741821289064	842.8972778320315	-1017.890258789063	-309.2109069824219	586.8532104492189	-1213.560913085938	-226.1731719970704	567.9906616210939	-1224.241821289063	-197.9093322753907	605.0179443359376	-1229.159545898438	-197.9697875976563	518.3551025390626	-1206.434692382813	-98.41179656982425	451.4597473144532	-1192.991821289063	-105.5664978027344	453.9929199218751	-1069.866821289063	-151.8003997802735	253.7294921875001	-1116.424438476563	-230.7223358154297	252.5917510986329	-1161.205810546875	-198.7950286865235	230.0422363281251	-1139.206176757813	-236.2166442871094	165.0531311035157	-1092.634521484375	-342.5778503417969	122.2360076904297	-1105.202270507813	-302.4896240234376	136.2299957275391	-1023.311645507813	-412.3948669433595	96.88429260253909	-1048.0595703125	-197.8288574218751	55.54111099243165	-1049.780029296875	-204.0853424072266	51.48556900024415	-1096.258178710938	-261.5569458007813	38.6107521057129	-1137.399536132813	-265.6973266601563	636.9522094726564	-857.3314208984377	-203.2119445800782	620.0760498046876	-868.1643676757815	-180.3826751708985	644.3944702148439	-875.6629028320315	-169.1652069091797	544.9266357421876	-875.475036621094	-66.7798538208008	456.4791564941407	-888.167663574219	-61.8622169494629	451.8096923828126	-1024.481323242188	102.3121414184571	368.4051513671876	-915.6113281250002	112.1163940429688	263.6601257324219	-889.4939575195315	145.5375366210938	294.0609436035157	-901.0347900390627	190.4162139892578	276.3181762695313	-934.756286621094	241.7144165039063	161.0581665039063	-912.263366699219	242.380111694336	182.7220916748047	-999.6242675781252	233.3609161376954	81.09078979492189	-964.1690673828127	388.8127441406251	240.8801879882813	-982.5054931640627	384.505096435547	242.3983917236329	-942.6187744140627	375.6868896484376	195.3656158447266	-889.9631347656252	nan	nan	nan	
420	2.095	-167.1676483154297	1493.612182617188	-1156.715209960938	-290.7619018554688	1439.587036132813	-1197.160522460938	-341.5666198730469	1399.504272460938	-1064.906494140625	-346.9882812500001	1298.48681640625	-1111.502685546875	-482.175018310547	1023.720825195313	-1076.78369140625	-237.0153808593751	1207.257934570313	-1121.413940429688	-281.9522399902344	1288.610473632813	-1251.19775390625	-133.2705230712891	1240.515869140625	-1335.465087890625	-101.1973419189453	1252.82470703125	-1299.095092773438	-64.8104934692383	1227.66796875	-1341.476928710938	-7.347810268402101	1198.883911132813	-1343.79345703125	-19.36355781555176	1143.051513671875	-1311.8173828125	nan	nan	nan	267.3368835449219	1220.339599609375	-1269.456787109375	324.6066284179688	1241.485595703125	-1175.025390625	-246.1715087890626	1276.021850585938	-986.980163574219	-90.33451080322267	1215.077514648438	-919.0468750000002	-63.87318420410158	1235.593627929688	-954.0364990234377	-22.89596176147461	1198.7626953125	-929.330017089844	37.28510665893555	1189.345092773438	-946.7380981445315	22.42466735839844	1130.389404296875	-992.4309692382815	279.3479919433594	1240.685546875	-1113.203247070313	297.7945861816407	1218.68896484375	-1041.140747070313	378.4901733398438	1251.17626953125	-1111.842895507813	-359.3937072753907	819.2229003906252	-1162.223022460938	-354.2908020019532	842.5644531250002	-943.0916137695315	-536.7918090820314	870.1411743164065	-1048.106567382813	-548.3425903320314	837.1525878906252	-1073.095947265625	-546.2928466796876	841.9582519531252	-1017.976745605469	-309.1712341308594	586.2634887695314	-1213.56494140625	-226.0955352783204	567.3821411132814	-1224.300537109375	-197.9963531494141	604.7355957031251	-1229.18896484375	-197.9204406738282	517.8098754882814	-1206.535888671875	-98.25296783447268	450.406951904297	-1193.12109375	-105.2305679321289	453.7390747070314	-1069.8876953125	-151.7787322998047	253.7092742919922	-1116.49853515625	-230.5353088378907	252.4950714111329	-1161.24658203125	-198.6647949218751	229.9061431884766	-1139.166625976563	-236.2218475341797	164.9993743896485	-1092.63427734375	-342.5177917480469	122.2364807128907	-1105.152465820313	-302.4892272949219	136.25048828125	-1023.298461914063	-412.4841918945314	96.91194915771487	-1048.101196289063	-197.8041381835938	55.53164291381837	-1049.768676757813	-204.0231933593751	51.55601882934572	-1096.247680664063	-261.5516052246094	38.62492370605469	-1137.387573242188	-265.6230163574219	636.1072998046876	-857.3439941406252	-203.1515655517579	619.5802001953126	-868.1375732421877	-180.2452392578125	643.9899902343751	-875.677429199219	-169.073715209961	544.0792236328126	-875.5086669921877	-66.63557434082033	456.0329895019532	-888.394714355469	-61.88101959228517	451.3497314453126	-1024.5712890625	102.4841918945313	368.3985290527344	-915.6890258789065	112.7225723266602	263.2372741699219	-889.8918457031252	145.7406005859375	293.9236450195313	-901.2683715820315	190.8050079345703	276.3977355957032	-934.9785156250002	242.2660675048829	161.1163482666016	-912.551208496094	242.7981872558594	182.6951293945313	-999.9750976562502	233.8910064697266	81.2848358154297	-964.6343994140627	389.3178100585939	241.0827941894532	-982.6992797851565	384.7808227539064	242.5001525878907	-942.8005371093752	376.0887756347657	195.6691131591797	-890.1635742187502	nan	nan	nan	
421	2.1	-166.831298828125	1492.5078125	-1156.712890625	-290.3462829589844	1438.417602539063	-1197.236450195313	-341.1660461425782	1398.257934570313	-1065.034057617188	-346.4602050781251	1297.375366210938	-1111.722412109375	-482.1042480468751	1023.004028320313	-1076.89013671875	-236.3171539306641	1206.106567382813	-1121.573120117188	-281.2431640625001	1287.38134765625	-1251.215942382813	-132.6639099121094	1239.930541992188	-1335.352416992188	-100.7413864135742	1252.270751953125	-1298.917358398438	-64.09158325195314	1227.315795898438	-1341.369018554688	-6.031174659729006	1198.33642578125	-1343.629150390625	-18.38491821289063	1142.599975585938	-1311.787475585938	nan	nan	nan	268.0254821777344	1220.430908203125	-1269.571411132813	325.2695922851563	1241.359130859375	-1175.04736328125	-245.8760528564454	1274.934814453125	-987.374694824219	-89.89868164062501	1214.101806640625	-919.0955200195315	-63.52744674682619	1235.049926757813	-954.1641845703127	-22.25454330444336	1198.11328125	-929.3411865234377	37.95981597900391	1188.481201171875	-946.8723754882815	22.17076301574707	1128.948974609375	-994.6143798828127	279.8471069335938	1240.385131835938	-1113.320190429688	298.2629394531251	1218.45361328125	-1041.151245117188	378.9033813476563	1250.968872070313	-1111.83056640625	-359.5848693847657	818.4541625976565	-1162.148681640625	-354.4570617675782	841.460388183594	-943.1342773437502	-536.9530029296876	869.3445434570315	-1048.155639648438	-548.5913085937501	836.4129638671877	-1073.098999023438	-546.3818359375001	841.1783447265627	-1017.967163085938	-309.0907897949219	585.7024536132814	-1213.593994140625	-226.2297058105469	567.0828247070314	-1224.428955078125	-198.0468292236329	604.4183959960939	-1229.265502929688	-197.8430480957032	517.1354980468751	-1206.749633789063	-98.13198089599612	450.2534179687501	-1193.281372070313	-105.0146026611328	453.3243408203126	-1069.98876953125	-151.6967163085938	253.5984344482422	-1116.506591796875	-230.4308776855469	252.4019317626954	-1161.325073242188	-198.4975738525391	229.7029418945313	-1139.332641601563	-236.1026611328126	164.8616027832032	-1092.685424804688	-342.5524291992188	122.224723815918	-1105.202392578125	-302.4378662109376	136.2083129882813	-1023.319885253906	-412.4002990722657	96.91436767578128	-1048.058227539063	-197.8163757324219	55.52446746826173	-1049.792846679688	-204.0303192138672	51.49508666992189	-1096.24365234375	-261.5796813964844	38.6386947631836	-1137.41748046875	-265.5200500488282	635.7249755859376	-857.2166137695315	-203.367172241211	618.8280029296876	-868.127624511719	-181.0634155273438	643.2092895507814	-876.1250610351565	-168.9043273925782	543.7713012695314	-875.5606689453127	-66.57445526123048	455.6420288085939	-888.5164184570315	-61.78815078735353	450.8887329101564	-1024.642333984375	102.6209564208985	368.2124023437501	-915.8121337890627	112.9295806884766	263.1064758300782	-890.048522949219	146.2122802734375	293.7361145019532	-901.5697021484377	191.2303466796875	276.2563171386719	-935.2503662109377	242.6996002197266	161.0244445800782	-912.8418579101565	243.2384185791016	182.7056274414063	-1000.113586425781	235.0082092285157	80.83110809326173	-965.1638793945315	389.676727294922	241.2705078125001	-982.8790283203127	386.0070190429689	242.6016235351563	-943.0532226562502	376.7961425781251	195.6906738281251	-890.4577636718752	nan	nan	nan	
422	2.105	-166.4512329101563	1491.333862304688	-1156.580322265625	-289.8155212402344	1437.084106445313	-1197.25830078125	-340.8847351074219	1396.826904296875	-1065.04638671875	-345.5103454589844	1296.279907226563	-1111.9453125	-482.0019531250001	1022.433898925781	-1076.94287109375	-235.6450195312501	1205.019775390625	-1121.820556640625	-280.5291137695313	1286.2421875	-1251.205688476563	-131.8889923095703	1239.4794921875	-1335.346435546875	-99.54961395263675	1251.482666015625	-1298.75048828125	-63.4523162841797	1227.0009765625	-1341.349487304688	-5.313216209411622	1198.13818359375	-1343.650024414063	-17.64229202270508	1142.279541015625	-1311.826782226563	nan	nan	nan	268.9493103027344	1220.473266601563	-1269.808471679688	326.1813964843751	1241.291015625	-1175.140014648438	-245.1305847167969	1273.823364257813	-987.4068603515627	-89.32864379882814	1213.179443359375	-919.3942871093752	-63.19187927246095	1234.252685546875	-954.3739013671877	-21.82953643798828	1197.117431640625	-929.667663574219	38.50363540649415	1186.715087890625	-946.3818359375002	22.72792625427246	1127.942016601563	-994.900085449219	281.1385498046876	1240.264282226563	-1113.775756835938	299.1214294433594	1218.09033203125	-1041.406005859375	379.6576232910157	1250.815063476563	-1111.940185546875	-359.9111633300782	817.6338500976565	-1162.1806640625	-354.7406921386719	840.5490722656252	-943.2327270507815	-537.2880249023439	868.5647583007815	-1048.135375976563	-548.7745971679689	835.5368652343752	-1073.061157226563	-546.7407226562501	840.496765136719	-1017.990234375	-309.2609252929688	585.1218261718751	-1213.606201171875	-226.2282409667969	566.6535034179689	-1224.4287109375	-198.1865234375001	604.0792846679689	-1229.365966796875	-197.639389038086	516.6168212890626	-1206.84765625	-98.03252410888675	450.4226684570314	-1193.320678710938	-104.5636596679688	453.1481323242189	-1070.178955078125	-151.6724700927735	253.5472412109376	-1116.591674804688	-230.3643188476563	252.3584136962891	-1161.448364257813	-198.3809204101563	229.5602416992188	-1139.376342773438	-236.1262512207032	164.771713256836	-1092.738891601563	-342.5378417968751	122.2126617431641	-1105.256225585938	-302.3669433593751	136.2913513183594	-1023.374877929688	-412.7862854003907	97.22779846191409	-1048.098266601563	-197.8336944580079	55.55289840698244	-1049.824340820313	-204.0457000732422	51.47848510742189	-1096.319458007813	-261.5580749511719	38.59840774536134	-1137.435546875	-266.6131591796876	634.5446166992189	-858.536804199219	-203.460189819336	618.1555786132814	-868.4550781250002	-181.2016143798828	642.4918823242189	-876.134948730469	-168.9718627929688	543.3178100585939	-875.6959228515627	-66.55947875976564	455.4392395019532	-888.5153808593752	-61.73101806640626	450.529998779297	-1024.62744140625	102.9270324707032	367.9382629394532	-915.9655761718752	113.4557342529297	262.9483032226563	-890.247985839844	146.4001922607422	293.6933288574219	-901.7147216796877	191.6371459960938	276.0928039550782	-935.4525146484377	242.9411163330079	160.8652648925782	-912.977233886719	243.6198120117188	182.7334289550782	-1000.352478027344	235.4402313232422	81.03966522216798	-965.3980712890627	389.9994201660157	241.4580993652344	-982.9824218750002	386.2612304687501	242.7767944335938	-943.2797851562502	377.3220825195313	195.8666381835938	-890.5505371093752	nan	nan	nan	
